<?xml version="1.0"?><svg width="640" height="480" xmlns="http://www.w3.org/2000/svg">
 <title>Purple Ganesh</title>
 <metadata id="metadata7">image/svg+xml</metadata>
 <g>
  <title>Layer 1</title>
  <g id="layer1">
   <g fill="#d45500" id="g3822">
    <path opacity="1" fill="#e6c45f" d="m94.441444,88.884315c21.913078,1.446739 44.374107,-6.865395 64.597359,14.793739c-11.428436,0.466339 -19.191147,-8.842567 -34.633789,2.328308c5.097458,44.312241 11.903885,31.584457 28.536728,54.933212c-49.732056,-3.145813 -33.768829,-63.864868 -58.500298,-72.05526z" id="rect2996"/>
    <path opacity="1" fill="#e6c45f" id="path3767" d="m315.277435,90.311157c-21.913055,3.503143 -44.374115,-4.180695 -66.73764,9.799805c12.258026,2.440666 24.516052,-2.231552 36.774048,7.322235c-8.972321,44.686264 -12.118896,34.7948 -28.536743,54.933212c49.732086,-3.145798 33.76886,-63.864868 58.500336,-72.055252z"/>
    <path opacity="1" fill="#e6c45f" d="m162.216187,84.603813c0.841675,-0.840874 69.3069,-9.416931 82.756531,14.981789c-27.347717,-8.573891 -54.695419,-6.781128 -82.043121,-2.140259c-2.192902,-4.102776 -2.620667,-8.366013 -0.713409,-12.84153z" id="rect3769"/>
    <path opacity="1" fill="#e6c45f" id="path3772" d="m168.357269,66.517181c2.162704,0.194519 54.542679,0.807274 70.348694,18.043991c-27.347748,-8.573997 -42.287582,-9.84346 -69.635284,-5.202606c-5.05658,-4.28054 -2.485703,-8.560837 -0.713409,-12.841385l0,0z"/>
    <path opacity="1" fill="#e6c45f" d="m200.098434,40.999992c9.96373,7.634659 15.185593,15.785446 15.401306,24.900879l-29.250153,0c1.07843,-9.663418 2.20108,-15.607685 13.848846,-24.900879z" id="rect3774"/>
    <path opacity="1" fill="#e6c45f" d="m165.294983,111.716003l25.458038,23.834503l-21.402649,0l2.237457,-14.538605l-6.292847,-9.295898z" id="rect3777"/>
    <path opacity="1" fill="#e6c45f" d="m195.586395,98.599106l4.146713,0c0.736359,5.297958 1.472961,10.325043 2.209305,10.841415c1.155106,0.809914 2.310196,-5.709427 3.465302,-10.841415l3.492249,0l0,14.388802c-2.774628,2.927071 -5.091812,6.615982 -13.313568,0.464165l0,-14.852966z" id="rect3782"/>
    <path opacity="1" fill="#e6c45f" d="m184.999771,166.073898c-4.062729,22.069412 -6.453003,44.718628 10.630829,62.402374c18.185883,7.438705 36.37178,4.318253 54.557419,-2.993118c15.68045,-7.885147 31.268494,-12.699295 44.670929,-8.056946c0.713898,2.703705 1.810791,5.407166 -0.770813,8.110886c-19.03186,-2.404068 -31.256226,5.814926 -46.065491,11.855591c-21.06015,10.178375 -42.120285,10.521973 -63.180435,0.247696c-15.36261,-11.898529 -20.412201,-33.44809 -14.173782,-54.824341c-5.676544,1.165588 -17.01265,4.080032 -24.040436,2.593842c5.743118,-8.469696 24.95369,-25.035812 38.37178,-19.335983l0,0z" id="rect3785"/>
    <path opacity="1" fill="#e6c45f" d="m238.516083,166.022736c2.669586,4.68338 3.843079,9.36676 2.247101,14.05014l-5.476318,4.850266c1.127838,9.472397 6.964142,12.463898 14.949432,15.604736l52.144165,-0.154236l5.558075,3.40239c5.688293,0.392303 11.434387,0.900223 16.665405,0.378052c3.044495,2.279236 2.37262,4.558456 1.709442,6.837677c-2.261414,3.10463 -4.969543,3.5289 -7.696259,3.841675c0.013519,3.598053 -2.13736,6.113922 -5.921661,7.813049c-1.894226,1.08313 -3.333008,0.344452 -4.762817,-0.430115c-0.738098,-3.694214 -1.47702,-7.388412 -1.751617,-11.082626l-55.044891,0.466965c-13.986633,-4.348038 -25.425629,-10.889282 -33.958542,-20.987259c-11.490555,-17.894806 8.155334,-31.57399 21.338486,-24.590714z" id="rect3788"/>
    <path opacity="1" fill="#e6c45f" d="m119.199631,178.17395c12.997208,-0.326218 15.811249,4.387299 19.102295,10.595367c2.847473,5.371323 1.695847,8.773392 -0.961472,14.086258c3.583481,-2.474274 9.819473,-1.685623 12.16391,1.529343c3.762634,6.784973 2.849731,17.554276 -2.138443,26.331421c-6.542038,7.685181 -15.076248,8.949554 -19.626129,7.885712c1.113098,-4.590515 12.81897,-11.999832 8.218643,-22.149643c-3.587097,4.883102 -7.327423,6.69696 -10.761261,6.604446c-2.293976,-0.875504 -2.576416,-2.613098 -2.021286,-4.709641c3.434891,-4.191254 6.674332,-11.317352 5.08847,-17.023727c-1.3246,-4.766312 -6.091049,-10.759216 -10.977402,-9.98732c-4.798889,0.758087 -6.336349,7.879105 -7.232483,12.654129c-1.522583,8.11293 0.561584,16.32814 3.656845,24.492218c2.181137,5.984406 14.289993,10.392929 11.173431,16.149399c-1.808868,3.341125 -8.241348,1.174225 -11.393951,-0.306488c-19.311363,-11.967499 -30.597755,-63.804916 5.708832,-66.151474z" id="rect3791"/>
    <path opacity="1" fill="#e6c45f" d="m260.915192,171.066483c2.247559,-1.849487 4.495117,-0.933609 6.742706,0c-0.350067,18.856842 -2.523499,20.228119 -17.163269,23.905945c3.473541,-5.728256 6.947021,-13.281281 10.420563,-23.905945z" id="rect3794"/>
    <path opacity="1" fill="#e6c45f" d="m325.805725,247.867691c-4.377197,2.440384 -6.516052,1.299377 -8.567169,0.018051c-3.940338,-4.741928 -4.617126,-10.05455 -13.214142,-10.805023c-8.380615,-0.222382 -12.132568,3.316055 -14.935944,7.625198l18.506653,0.554367c0.617767,2.300308 2.863251,3.176361 -0.009369,8.530746l-33.185181,0.02684c-1.558746,-10.288574 10.603516,-20.351547 25.971893,-29.81749c10.150635,4.115067 23.43399,16.054535 25.433258,23.86731z" id="rect3797"/>
    <path opacity="1" fill="#e6c45f" d="m54.999619,257.104706c15.90329,-15.662811 39.822357,-17.913788 63.036331,-8.310181c18.276764,6.429352 25.422516,11.902069 33.300079,21.524017l-39.416122,-11.959717c-14.372467,-4.520676 -34.632813,4.651337 -43.428391,13.400818c-7.763237,9.812195 -4.294769,32.551453 19.622826,54.67926c11.695183,7.275635 24.749306,9.7771 53.139015,13.575439l52.975723,1.120056c18.085968,2.266602 20.596878,10.590179 24.230225,18.477203c-5.607269,-3.89563 -8.458267,-9.261322 -22.792984,-8.50235l-55.447708,2.784729c-20.246506,-1.152344 -40.493004,-1.802124 -60.73951,-12.962494c-45.64389,-24.587982 -39.383148,-66.920197 -24.479485,-83.826782z" id="rect3800"/>
    <path opacity="1" fill="#e6c45f" d="m212.0495,254.005249c3.140945,-0.851242 6.117569,-1.124908 10.343597,-3.629379c2.310745,5.469727 2.805817,9.321274 0.230377,12.959335c-17.223785,16.733307 -39.344589,28.86087 -59.885635,32.325073c13.775742,-11.782501 32.199341,-20.229523 49.311661,-41.655029z" id="rect3803"/>
    <path opacity="1" fill="#e6c45f" id="path3806" d="m201.763565,294.107178c0,4.007507 -3.573608,7.256256 -7.981903,7.256256c-4.408279,0 -7.981903,-3.248749 -7.981903,-7.256256c0,-4.007538 3.573624,-7.256287 7.981903,-7.256287c4.408295,0 7.981903,3.248749 7.981903,7.256287z"/>
    <path opacity="1" fill="#e6c45f" d="m161.999191,301.943939c22.214111,9.496521 36.929749,7.74942 62.984451,-3.19278c-20.451645,23.027161 -65.338943,24.318481 -62.984451,3.19278z" id="rect3808"/>
    <path opacity="1" fill="#e6c45f" d="m248.49408,294.687805c13.686096,-19.350739 27.484589,-33.328766 47.108215,-36.878418c27.922058,-5.050629 52.673981,15.162781 50.99649,40.36142c-1.881714,28.266357 -15.575562,52.838501 -34.249603,73.724579c-8.933136,9.990356 -25.432068,13.266388 -34.421143,15.850739c6.870148,-7.808014 15.851227,-7.783051 25.466278,-22.452728c9.744659,-20.054596 26.760223,-45.555817 25.686523,-62.202332c-2.40683,-25.013611 -17.431305,-31.480957 -31.040009,-27.430145c-15.662201,4.662079 -29.08963,18.55545 -37.195251,29.341827c-11.553467,19.369934 -19.123047,58.080872 -15.161835,66.285889c7.210724,8.127625 17.526428,5.915314 24.869263,6.409698c-7.371277,6.631927 -27.860626,11.810669 -34.348267,2.344666c-14.564026,-21.251648 -0.177765,-63.982208 12.289337,-85.355194l0,0z" id="rect3811"/>
    <path opacity="1" fill="#e6c45f" d="m144.003632,357.383057c48.308243,9.403564 51.962799,26.962189 58.630692,45.277435c-17.952667,-12.602173 -28.111435,-29.881165 -59.791702,-34.248383c-8.896805,-3.8703 -4.777588,-11.009094 1.161011,-11.029053l0,0z" id="rect3814"/>
    <path opacity="1" fill="#e6c45f" d="m217.146866,383.504425l8.519318,-10.781769c8.490097,3.457123 7.740677,6.08194 5.198242,10.764954l-4.429535,4.080353l0.319412,16.4133l37.501404,-0.95929c8.176666,4.686981 5.911835,8.919983 -0.088196,12.99057l-50.503662,-1.161011c-6.165268,-11.495636 -0.815689,-21.346313 3.483017,-31.347107z" id="rect3817"/>
    <path opacity="1" fill="#e6c45f" id="path3820" d="m235.501862,111.716003l-25.457794,23.834503l21.402481,0l-2.237534,-14.538605l6.292847,-9.295898z"/>
   </g>
  </g>
 </g>
</svg>